<svg width="164" height="24" viewBox="0 0 164 24" fill="none" xmlns="http://www.w3.org/2000/svg">
<path d="M13.715 19.3352H4.64105C2.08119 19.3352 0 17.254 0 14.6941V5.62012C0 3.06025 2.08119 0.979065 4.64105 0.979065H13.715C16.2749 0.979065 18.3561 3.06025 18.3561 5.62012V14.6941C18.3561 17.254 16.2749 19.3352 13.715 19.3352Z" fill="#1D1D1F"/>
<path d="M13.7983 10.0947C13.7983 10.8023 13.5069 11.4267 13.0491 11.8845C12.5912 12.3424 11.9668 12.6338 11.2592 12.6338H10.5516V7.55566H11.2592C12.6744 7.55566 13.7983 8.70032 13.7983 10.0947Z" fill="#EAEAEB"/>
<path d="M13.7983 4.3714V10.0947C13.7983 8.70027 12.6537 7.55562 11.2593 7.55562H9.32379C8.61618 7.55562 7.99183 7.84699 7.53397 8.30485C7.0761 8.76271 6.78474 9.38706 6.78474 10.0947C6.78474 11.4891 7.92939 12.6337 9.32379 12.6337H10.5309V15.9428H9.26135C6.07713 15.9428 3.47565 13.3621 3.47565 10.1571C3.47565 8.55459 4.12082 7.11857 5.16141 6.07797C6.202 5.03738 7.65884 4.39221 9.24054 4.39221H12.6537C13.0699 4.3714 13.4445 4.3714 13.7983 4.3714Z" fill="white"/>
<path d="M33.5905 12.1946V17.6474H30.9474V16.586C30.4271 17.2727 29.3032 17.8347 27.6799 17.8347C24.4957 17.8347 22.1855 15.5454 22.1855 12.1322C22.1855 8.73987 24.4749 6.47137 27.8672 6.47137C31.3012 6.49219 33.5905 8.7815 33.5905 12.1946ZM27.9088 8.92718C26.0566 8.92718 24.8495 10.1343 24.8495 12.1946C24.8495 14.2342 26.0566 15.4621 27.9088 15.4621C29.7403 15.4621 30.9474 14.255 30.9474 12.1946C30.9474 10.1343 29.7403 8.92718 27.9088 8.92718Z" fill="#1D1D1F"/>
<path d="M35.2137 2.24652H41.7071C44.2253 2.24652 45.807 3.9531 45.807 6.32565C45.807 7.82411 45.1826 8.73983 44.2461 9.26013C45.7238 9.7388 46.5978 11.0083 46.5978 13.152C46.5978 15.7951 45.141 17.6681 42.3314 17.6681H35.2346V2.24652H35.2137ZM43.039 6.49215C43.039 5.43074 42.04 4.76476 41.0411 4.76476H37.9609V8.17791H41.0411C42.0609 8.19872 43.039 7.51193 43.039 6.49215ZM44.142 12.9438C44.142 11.5911 43.2679 10.717 41.9568 10.717H37.9609V15.1291H41.9568C43.2679 15.1291 44.142 14.255 44.142 12.9438Z" fill="#1D1D1F"/>
<path d="M47.8882 2.24652H50.5314V17.6681H47.8882V2.24652Z" fill="#1D1D1F"/>
<path d="M57.2535 6.49219C60.6667 6.49219 62.9352 8.76068 62.9352 12.153C62.9352 15.5662 60.6667 17.8555 57.2535 17.8555C53.8404 17.8555 51.5511 15.5662 51.5511 12.153C51.5511 8.76068 53.8404 6.49219 57.2535 6.49219ZM57.2327 15.4413C59.085 15.4413 60.2921 14.2342 60.2921 12.1738C60.2921 10.1343 59.085 8.90637 57.2327 8.90637C55.4013 8.90637 54.1942 10.1135 54.1942 12.1738C54.1942 14.2342 55.4013 15.4413 57.2327 15.4413Z" fill="#1D1D1F"/>
<path d="M69.5327 15.4413C70.8854 15.4413 71.8636 14.7961 72.3215 13.6723H75.0686C74.4651 16.2322 72.4255 17.8555 69.5327 17.8555C66.1195 17.8555 63.8302 15.5662 63.8302 12.153C63.8302 8.76068 66.1195 6.49219 69.5327 6.49219C72.4047 6.49219 74.4651 8.0947 75.0478 10.6129H72.3006C71.8428 9.53072 70.8438 8.92718 69.5327 8.92718C67.7012 8.92718 66.4941 10.1343 66.4941 12.1946C66.4941 14.2342 67.7012 15.4413 69.5327 15.4413Z" fill="#1D1D1F"/>
<path d="M76.0676 2.24652H78.7107V13.4225L83.6847 6.65864H86.8273L82.7482 12.1738L86.7441 17.6889H83.6223L81.2081 14.3174L78.7107 17.6889H76.0676V2.24652Z" fill="#1D1D1F"/>
<path d="M95.8595 14.3383C95.8595 16.586 94.0696 17.793 91.5722 17.793C89.2413 17.793 87.7428 16.7316 87.056 16.1281L88.4712 14.0677C89.387 14.9418 90.5732 15.3997 91.6346 15.3997C92.5296 15.3997 93.2164 15.0875 93.2164 14.4423C93.2164 12.5484 87.2225 13.7139 87.2225 9.67641C87.2225 7.65765 88.7418 6.49219 91.2392 6.49219C93.4245 6.49219 94.8605 7.36629 95.8178 8.15714L94.4026 10.1967C93.2372 9.21854 92.0925 8.90637 91.1768 8.90637C90.3235 8.90637 89.8448 9.19773 89.8448 9.63478C89.8656 11.2373 95.8595 10.2175 95.8595 14.3383Z" fill="#1D1D1F"/>
<path d="M102.052 17.6647V2.48506H104.763V15.1709H112.093V17.6647H102.052Z" fill="black"/>
<path d="M112.934 3.67775C112.934 2.89708 113.563 2.24652 114.366 2.24652C115.168 2.24652 115.797 2.89708 115.797 3.67775C115.797 4.50179 115.168 5.13066 114.366 5.13066C113.563 5.13066 112.934 4.50179 112.934 3.67775ZM113.064 17.6647V6.82211H115.667V17.6647H113.064Z" fill="black"/>
<path d="M116.983 2.48506H119.585V7.88469C120.105 7.21244 121.211 6.64863 122.773 6.64863C125.939 6.64863 128.194 8.90389 128.194 12.2651C128.194 15.6046 125.939 17.8382 122.643 17.8382C119.477 17.8382 116.983 15.7564 116.983 12.2651V2.48506ZM125.592 12.2434C125.592 10.2267 124.399 9.034 122.578 9.034C120.778 9.034 119.585 10.2267 119.585 12.2434C119.585 14.2601 120.778 15.4528 122.578 15.4528C124.399 15.4528 125.592 14.2601 125.592 12.2434Z" fill="black"/>
<path d="M129.18 11.5929C129.18 8.2967 131.262 6.62694 134.558 6.62694V9.01232C132.823 9.01232 131.782 9.85804 131.782 11.5929V17.6647H129.18V11.5929Z" fill="black"/>
<path d="M140.273 6.67031C143.635 6.67031 145.89 8.92558 145.89 12.2868V17.6647H143.288V16.6238C142.767 17.2961 141.661 17.8599 140.078 17.8599C136.934 17.8599 134.679 15.6046 134.679 12.2434C134.679 8.90389 136.934 6.67031 140.273 6.67031ZM143.288 12.2651C143.288 10.2484 142.095 9.05569 140.295 9.05569C138.473 9.05569 137.281 10.2484 137.281 12.2651C137.281 14.2818 138.473 15.4745 140.295 15.4745C142.095 15.4745 143.288 14.2818 143.288 12.2651Z" fill="black"/>
<path d="M147.181 11.5929C147.181 8.2967 149.262 6.62694 152.559 6.62694V9.01232C150.824 9.01232 149.783 9.85804 149.783 11.5929V17.6647H147.181V11.5929Z" fill="black"/>
<path d="M156.634 17.3828L152.904 6.82211H155.615L158.217 14.3252L160.819 6.82211H163.53L159.692 17.6647C158.803 20.2019 158.174 23.021 154.531 23.021V20.6356C155.984 20.6356 157.155 18.8357 156.634 17.3828Z" fill="black"/>
</svg>
