<svg width="140" height="138" viewBox="0 0 140 138" fill="none" xmlns="http://www.w3.org/2000/svg">
<path d="M0.5 8.5C0.5 4.35786 3.85786 1 8 1H132C136.142 1 139.5 4.35786 139.5 8.5V129.5C139.5 133.642 136.142 137 132 137H8C3.85786 137 0.5 133.642 0.5 129.5V8.5Z" stroke="#DDDDDF"/>
<path d="M75.5 69.75H63.5C63.09 69.75 62.75 69.41 62.75 69C62.75 68.59 63.09 68.25 63.5 68.25H75.5C75.91 68.25 76.25 68.59 76.25 69C76.25 69.41 75.91 69.75 75.5 69.75Z" fill="#13191B"/>
<path d="M69.5 75.75C69.09 75.75 68.75 75.41 68.75 75V63C68.75 62.59 69.09 62.25 69.5 62.25C69.91 62.25 70.25 62.59 70.25 63V75C70.25 75.41 69.91 75.75 69.5 75.75Z" fill="#13191B"/>
</svg>
