<svg width="140" height="140" viewBox="0 0 140 140" fill="none" xmlns="http://www.w3.org/2000/svg">
<rect x="0.5" y="1" width="139" height="138" rx="7.5" fill="#FAFAFA"/>
<rect x="0.5" y="1" width="139" height="138" rx="7.5" stroke="#DDDDDF"/>
<rect x="10.5" y="10.5" width="119" height="119" rx="3.5" fill="white"/>
<rect x="10.5" y="10.5" width="119" height="119" rx="3.5" stroke="#F4F4F5"/>
<rect x="19.333" y="18" width="8" height="8" rx="4" fill="#D9D9D9"/>
<g clip-path="url(#clip0_9435_12213)">
<path d="M23.0281 23.2448C22.9773 23.2448 22.9266 23.2194 22.9012 23.194L21.8345 22.1273C21.7583 22.0511 21.7583 21.9241 21.8345 21.8479C21.9107 21.7717 22.0377 21.7717 22.1139 21.8479L23.0281 22.7622L25.0091 20.7813C25.0853 20.7051 25.2123 20.7051 25.2885 20.7813C25.3646 20.8575 25.3646 20.9844 25.2885 21.0606L23.1805 23.1686C23.1297 23.2194 23.0789 23.2448 23.0281 23.2448Z" fill="white"/>
</g>
<rect x="30" y="20" width="16" height="4" rx="2" fill="#D9D9D9"/>
<path d="M52.4504 22.1183L50.7837 23.785C50.7682 23.8005 50.7498 23.8128 50.7296 23.8212C50.7094 23.8295 50.6877 23.8338 50.6658 23.8338C50.6439 23.8338 50.6222 23.8295 50.602 23.8212C50.5817 23.8128 50.5634 23.8005 50.5479 23.785C50.5324 23.7695 50.5201 23.7511 50.5117 23.7309C50.5033 23.7107 50.499 23.689 50.499 23.6671C50.499 23.6452 50.5033 23.6235 50.5117 23.6033C50.5201 23.583 50.5324 23.5647 50.5479 23.5492L52.0968 22.0004L50.5479 20.4517C50.5166 20.4204 50.499 20.378 50.499 20.3338C50.499 20.2895 50.5166 20.2471 50.5479 20.2158C50.5791 20.1846 50.6216 20.167 50.6658 20.167C50.71 20.167 50.7524 20.1846 50.7837 20.2158L52.4504 21.8825C52.4659 21.898 52.4782 21.9164 52.4865 21.9366C52.4949 21.9568 52.4992 21.9785 52.4992 22.0004C52.4992 22.0223 52.4949 22.044 52.4865 22.0642C52.4782 22.0845 52.4659 22.1029 52.4504 22.1183Z" fill="#74777C"/>
<rect x="56.666" y="18" width="8" height="8" rx="4" fill="#D9D9D9"/>
<path d="M60.3611 23.2448C60.3104 23.2448 60.2596 23.2194 60.2342 23.194L59.1675 22.1273C59.0913 22.0511 59.0913 21.9241 59.1675 21.8479C59.2437 21.7717 59.3707 21.7717 59.4469 21.8479L60.3611 22.7622L62.3421 20.7813C62.4183 20.7051 62.5453 20.7051 62.6215 20.7813C62.6977 20.8575 62.6977 20.9844 62.6215 21.0606L60.5135 23.1686C60.4627 23.2194 60.4119 23.2448 60.3611 23.2448Z" fill="white"/>
<rect x="67.333" y="20" width="16" height="4" rx="2" fill="#D9D9D9"/>
<path d="M89.7844 22.1183L88.1177 23.785C88.1022 23.8005 88.0838 23.8128 88.0636 23.8212C88.0434 23.8295 88.0217 23.8338 87.9998 23.8338C87.9779 23.8338 87.9562 23.8295 87.936 23.8212C87.9157 23.8128 87.8973 23.8005 87.8819 23.785C87.8664 23.7695 87.8541 23.7511 87.8457 23.7309C87.8373 23.7107 87.833 23.689 87.833 23.6671C87.833 23.6452 87.8373 23.6235 87.8457 23.6033C87.8541 23.583 87.8664 23.5647 87.8819 23.5492L89.4308 22.0004L87.8819 20.4517C87.8506 20.4204 87.833 20.378 87.833 20.3338C87.833 20.2895 87.8506 20.2471 87.8819 20.2158C87.9131 20.1846 87.9555 20.167 87.9998 20.167C88.044 20.167 88.0864 20.1846 88.1177 20.2158L89.7844 21.8825C89.7998 21.898 89.8121 21.9164 89.8205 21.9366C89.8289 21.9568 89.8332 21.9785 89.8332 22.0004C89.8332 22.0223 89.8289 22.044 89.8205 22.0642C89.8121 22.0845 89.7998 22.1029 89.7844 22.1183Z" fill="#74777C"/>
<rect x="94" y="18" width="8" height="8" rx="4" fill="#D9D9D9"/>
<path d="M97.5785 21.6338H97.8792C98.0266 21.6338 98.1481 21.6095 98.2438 21.5609C98.341 21.5107 98.4132 21.4431 98.4603 21.3581C98.5089 21.2715 98.5332 21.1743 98.5332 21.0664C98.5332 20.9388 98.5119 20.8317 98.4694 20.7451C98.4269 20.6585 98.3631 20.5932 98.278 20.5492C98.1929 20.5051 98.0851 20.4831 97.9544 20.4831C97.8359 20.4831 97.7311 20.5066 97.64 20.5537C97.5503 20.5993 97.4797 20.6646 97.4281 20.7497C97.3779 20.8347 97.3529 20.935 97.3529 21.0505H96.9313C96.9313 20.8818 96.9738 20.7284 97.0589 20.5902C97.144 20.4519 97.2632 20.3418 97.4167 20.2598C97.5716 20.1777 97.7509 20.1367 97.9544 20.1367C98.1549 20.1367 98.3304 20.1724 98.4808 20.2438C98.6312 20.3137 98.7482 20.4185 98.8317 20.5583C98.9153 20.6965 98.957 20.8689 98.957 21.0755C98.957 21.1591 98.9373 21.2487 98.8978 21.3444C98.8598 21.4386 98.7998 21.5267 98.7178 21.6087C98.6373 21.6908 98.5324 21.7584 98.4033 21.8115C98.2742 21.8632 98.1192 21.889 97.9385 21.889H97.5785V21.6338ZM97.5785 21.9801V21.7272H97.9385C98.1496 21.7272 98.3243 21.7523 98.4626 21.8024C98.6008 21.8525 98.7094 21.9194 98.7884 22.0029C98.8689 22.0865 98.9251 22.1784 98.957 22.2786C98.9905 22.3774 99.0072 22.4761 99.0072 22.5749C99.0072 22.7298 98.9806 22.8673 98.9274 22.9873C98.8758 23.1073 98.8021 23.2091 98.7064 23.2926C98.6122 23.3762 98.5013 23.4392 98.3737 23.4818C98.2461 23.5243 98.1071 23.5456 97.9567 23.5456C97.8124 23.5456 97.6764 23.5251 97.5488 23.484C97.4227 23.443 97.3111 23.3838 97.2139 23.3063C97.1166 23.2273 97.0407 23.1309 96.986 23.0169C96.9313 22.9015 96.904 22.7701 96.904 22.6227H97.3255C97.3255 22.7382 97.3506 22.8392 97.4007 22.9258C97.4524 23.0124 97.5253 23.08 97.6195 23.1286C97.7152 23.1757 97.8276 23.1992 97.9567 23.1992C98.0858 23.1992 98.1967 23.1772 98.2894 23.1331C98.3836 23.0876 98.4557 23.0192 98.5059 22.9281C98.5575 22.8369 98.5833 22.7222 98.5833 22.584C98.5833 22.4457 98.5545 22.3326 98.4967 22.2445C98.439 22.1548 98.357 22.0888 98.2507 22.0462C98.1458 22.0022 98.022 21.9801 97.8792 21.9801H97.5785Z" fill="white"/>
<rect x="104.667" y="20" width="16" height="4" rx="2" fill="#D9D9D9"/>
<rect x="18" y="36" width="35.0596" height="4" rx="2" fill="#D9D9D9"/>
<rect x="18.25" y="45.25" width="103.5" height="15.5" rx="3.75" fill="white"/>
<rect x="18.25" y="45.25" width="103.5" height="15.5" rx="3.75" stroke="#DDDDDF" stroke-width="0.5"/>
<rect x="24" y="51" width="92" height="4" rx="2" fill="#D9D9D9"/>
<rect x="18" y="71" width="35.0596" height="4" rx="2" fill="#D9D9D9"/>
<rect x="18.25" y="80.25" width="103.5" height="15.5" rx="3.75" fill="white"/>
<rect x="18.25" y="80.25" width="103.5" height="15.5" rx="3.75" stroke="#DDDDDF" stroke-width="0.5"/>
<rect x="24" y="86" width="92" height="4" rx="2" fill="#D9D9D9"/>
<rect x="18.25" y="106.25" width="103.5" height="15.5" rx="3.75" fill="#D9D9D9"/>
<rect x="18.25" y="106.25" width="103.5" height="15.5" rx="3.75" stroke="#DDDDDF" stroke-width="0.5"/>
<rect x="54" y="112" width="32" height="4" rx="2" fill="white"/>
<defs>
<clipPath id="clip0_9435_12213">
<rect width="5.33333" height="5.33333" fill="white" transform="translate(20.666 19.3335)"/>
</clipPath>
</defs>
</svg>
