<svg width="140" height="140" viewBox="0 0 140 140" fill="none" xmlns="http://www.w3.org/2000/svg">
<rect x="0.5" y="1" width="139" height="138" rx="7.5" fill="#FAFAFA"/>
<rect x="0.5" y="1" width="139" height="138" rx="7.5" stroke="#DDDDDF"/>
<rect x="10.5" y="19.5" width="119" height="101" rx="3.5" fill="white"/>
<rect x="10.5" y="19.5" width="119" height="101" rx="3.5" stroke="#F4F4F5"/>
<rect x="18" y="27" width="35.0596" height="4" rx="2" fill="#D9D9D9"/>
<rect x="18.25" y="36.25" width="103.5" height="15.5" rx="3.75" fill="white"/>
<rect x="18.25" y="36.25" width="103.5" height="15.5" rx="3.75" stroke="#DDDDDF" stroke-width="0.5"/>
<rect x="24" y="42" width="92" height="4" rx="2" fill="#D9D9D9"/>
<rect x="18" y="62" width="35.0596" height="4" rx="2" fill="#D9D9D9"/>
<rect x="18.25" y="71.25" width="103.5" height="15.5" rx="3.75" fill="white"/>
<rect x="18.25" y="71.25" width="103.5" height="15.5" rx="3.75" stroke="#DDDDDF" stroke-width="0.5"/>
<rect x="24" y="77" width="92" height="4" rx="2" fill="#D9D9D9"/>
<rect x="18.25" y="97.25" width="103.5" height="15.5" rx="3.75" fill="#D9D9D9"/>
<rect x="18.25" y="97.25" width="103.5" height="15.5" rx="3.75" stroke="#DDDDDF" stroke-width="0.5"/>
<rect x="54" y="103" width="32" height="4" rx="2" fill="white"/>
</svg>
